<?xml version="1.0" encoding="UTF-8" standalone="no"?>
<!-- Created with Inkscape (http://www.inkscape.org/) -->

<svg
   xmlns:dc="http://purl.org/dc/elements/1.1/"
   xmlns:cc="http://creativecommons.org/ns#"
   xmlns:rdf="http://www.w3.org/1999/02/22-rdf-syntax-ns#"
   xmlns:svg="http://www.w3.org/2000/svg"
   xmlns="http://www.w3.org/2000/svg"
   xmlns:sodipodi="http://sodipodi.sourceforge.net/DTD/sodipodi-0.dtd"
   xmlns:inkscape="http://www.inkscape.org/namespaces/inkscape"
   width="180"
   height="54"
   viewBox="0 0 47.624999 14.2875"
   version="1.1"
   id="svg1420"
   inkscape:version="0.92.1 r15371"
   sodipodi:docname="logo-optimize-4.svg">
  <defs
     id="defs1414" />
  <sodipodi:namedview
     id="base"
     pagecolor="#ffffff"
     bordercolor="#666666"
     borderopacity="1.0"
     inkscape:pageopacity="0.0"
     inkscape:pageshadow="2"
     inkscape:zoom="5.6"
     inkscape:cx="59.03164"
     inkscape:cy="35.339414"
     inkscape:document-units="mm"
     inkscape:current-layer="layer1"
     showgrid="false"
     units="px"
     inkscape:window-width="1920"
     inkscape:window-height="1001"
     inkscape:window-x="-9"
     inkscape:window-y="-9"
     inkscape:window-maximized="1" />
  <metadata
     id="metadata1417">
    <rdf:RDF>
      <cc:Work
         rdf:about="">
        <dc:format>image/svg+xml</dc:format>
        <dc:type
           rdf:resource="http://purl.org/dc/dcmitype/StillImage" />
        <dc:title />
      </cc:Work>
    </rdf:RDF>
  </metadata>
  <g
     inkscape:label="Layer 1"
     inkscape:groupmode="layer"
     id="layer1"
     transform="translate(0,-282.71248)">
    <g
       transform="matrix(0.31861946,0,0,-0.28425724,11.186008,292.12473)"
       id="g2006"
       style="fill:#000000">
      <path
         d="m 0,0 v 2.759 h -2.59 v 4.73 h 2.563 c 3.35,0 7.151,1.519 7.151,6.419 0,4.842 -3.942,6.42 -7.883,6.42 h -7.715 v -2.76 H -6.25 V 2.759 H -8.474 V 0 Z m -2.59,17.625 h 0.845 c 0.592,0 5.208,0.507 5.208,-3.717 0,-4.195 -4.842,-3.66 -5.124,-3.66 H -2.59 Z m 16.721,-2.984 v 2.927 h 2.563 V 2.759 H 14.245 V 0 h 8.559 v 2.759 h -2.45 v 14.809 h 2.563 v -2.927 h 3.237 v 5.687 H 10.894 V 14.641 Z M 37.723,0 V 2.759 H 35.64 v 14.809 h 2.083 v 2.76 H 29.84 v -2.76 h 2.14 V 2.759 H 29.84 V 0 Z"
         inkscape:connector-curvature="0"
         id="path2008"
         style="fill:#000000;fill-opacity:1;fill-rule:nonzero;stroke:none" />
    </g>
    <g
       transform="matrix(0.31861946,0,0,-0.28425724,30.44429,286.34643)"
       id="g2010"
       style="fill:#000000">
      <path
         d="M 0,0 -7.459,-17.373 H -7.517 L -14.95,0 h -4.279 v -1.352 h 2.478 v -17.624 h -2.478 v -1.352 h 6.334 v 1.352 h -2.336 v 16.048 h 0.057 l 7.207,-16.556 h 0.957 l 7.207,16.556 h 0.058 v -16.048 h -2.479 v -1.352 h 6.503 v 1.352 H 1.775 V -1.352 H 4.279 V 0 Z m 10.162,-18.976 h -2.59 v -1.352 h 6.699 v 1.352 h -2.589 v 17.624 h 2.589 V 0 H 7.572 v -1.352 h 2.59 z m 9.121,17.624 H 29.672 L 17.734,-18.976 v -1.352 h 13.655 v 5.406 h -1.521 v -4.054 H 19.592 L 31.529,-1.352 V 0 H 17.762 v -5.236 h 1.521 z m 31.052,-18.976 v 4.815 h -1.521 v -3.463 h -9.573 v 8.784 h 7.378 v 1.351 h -7.378 v 7.489 h 9.573 v -3.631 h 1.521 V 0 H 35.217 v -1.352 h 2.506 v -17.624 h -2.506 v -1.352 z"
         inkscape:connector-curvature="0"
         id="path2012"
         style="fill:#000000;fill-opacity:1;fill-rule:nonzero;stroke:none" />
    </g>
    <g
       transform="matrix(0.31861946,0,0,-0.28425724,3.8672549,283.37395)"
       id="g2014"
       style="fill:#000000">
      <path
         d="m 0,0 c -5.581,0 -9.951,-4.359 -9.951,-9.924 0,-4.757 3.114,-9.874 9.951,-9.874 5.5,0 9.976,4.429 9.976,9.874 C 9.976,-4.359 5.594,0 0,0 m 6.215,-9.796 c 0,-3.704 -2.749,-6.498 -6.395,-6.498 -3.37,0 -6.01,2.639 -6.01,6.009 0,4.056 2.53,6.781 6.292,6.781 3.427,0 6.113,-2.765 6.113,-6.292"
         inkscape:connector-curvature="0"
         id="path2016"
         style="fill:#000000;fill-opacity:1;fill-rule:nonzero;stroke:none" />
    </g>
    <g
       transform="matrix(0.31861946,0,0,-0.28425724,6.9408176,292.17524)"
       id="g2018"
       style="fill:#ffffff">
      <path
         d="m 0,0 c -1.103,4.299 -4.947,7.396 -9.646,7.396 -4.688,0 -8.524,-3.097 -9.622,-7.396 h 3.938 c 0.908,2.424 2.999,3.893 5.786,3.893 2.593,0 4.759,-1.584 5.66,-3.893 z"
         inkscape:connector-curvature="0"
         id="path2020"
         style="fill:#ffffff;fill-opacity:1;fill-rule:nonzero;stroke:none" />
    </g>
    <text
       xml:space="preserve"
       style="font-style:normal;font-variant:normal;font-weight:normal;font-stretch:normal;font-size:3.17499995px;line-height:1.25;font-family:Rockwell;-inkscape-font-specification:Rockwell;letter-spacing:0px;word-spacing:0px;fill:#000000;fill-opacity:1;stroke:none;stroke-width:0.10020325"
       x="0.74573922"
       y="283.23935"
       id="text1352"
       transform="scale(0.95606718,1.0459516)"><tspan
         sodipodi:role="line"
         id="tspan1350"
         x="0.74573922"
         y="283.23935"
         style="font-style:normal;font-variant:normal;font-weight:normal;font-stretch:normal;font-size:3.17499995px;font-family:Rockwell;-inkscape-font-specification:Rockwell;fill:#000000;stroke-width:0.10020325">Your Success is our vision.</tspan></text>
  </g>
</svg>
